<?xml version="1.0" standalone="no"?>
<!DOCTYPE svg PUBLIC "-//W3C//DTD SVG 20010904//EN"
 "http://www.w3.org/TR/2001/REC-SVG-20010904/DTD/svg10.dtd">
<svg version="1.0" xmlns="http://www.w3.org/2000/svg"
 width="640.000000pt" height="640.000000pt" viewBox="0 0 640.000000 640.000000"
 preserveAspectRatio="xMidYMid meet">
<metadata>
Created by potrace 1.11, written by Peter Selinger 2001-2013
</metadata>
<g transform="translate(0.000000,640.000000) scale(0.100000,-0.100000)"
fill="#000000" stroke="none">
<path d="M0 3200 l0 -3200 3200 0 3200 0 0 3200 0 3200 -3200 0 -3200 0 0
-3200z m3510 1955 c699 -83 1309 -539 1582 -1183 287 -678 178 -1444 -289
-2022 -73 -91 -244 -257 -332 -323 -170 -127 -386 -239 -591 -305 -494 -160
-1005 -122 -1478 109 -68 33 -122 65 -120 71 6 17 744 458 767 458 6 0 25 -9
43 -20 49 -30 108 -25 108 9 0 29 -27 57 -137 142 -253 195 -387 374 -367 488
10 58 70 172 119 228 25 29 88 84 141 123 102 78 123 102 103 126 -13 16 -70
19 -85 4 -6 -6 -295 -11 -807 -12 l-796 -3 74 -92 c41 -51 75 -98 75 -105 0
-7 -29 -57 -64 -111 -76 -118 -73 -120 -111 69 -80 394 -29 849 136 1204 l41
88 42 -13 c50 -16 231 -84 432 -164 83 -32 170 -65 193 -72 23 -7 40 -15 38
-18 -50 -90 -63 -176 -38 -252 24 -73 93 -110 149 -80 60 32 89 193 49 270 -9
19 -17 36 -17 38 0 1 26 3 58 3 100 0 124 17 102 74 -15 40 -50 49 -140 35
l-78 -12 -74 35 c-40 19 -172 101 -293 182 -121 82 -237 157 -258 168 -27 13
-36 23 -30 31 190 254 387 436 619 573 370 218 808 310 1234 259z m-620 -2145
c0 -4 -30 -33 -68 -63 -108 -89 -204 -216 -237 -316 -44 -134 16 -268 200
-446 45 -44 114 -105 153 -135 39 -30 71 -57 71 -60 0 -4 -287 -179 -388 -235
-20 -11 -47 -28 -61 -36 -38 -24 -273 -163 -290 -172 -8 -4 -33 -18 -55 -32
-22 -14 -77 -46 -123 -72 -46 -27 -91 -53 -100 -58 -189 -114 -212 -126 -212
-112 0 6 13 46 29 87 16 41 44 113 61 160 18 47 39 102 48 123 8 20 13 39 10
42 -5 5 -122 21 -335 45 -57 7 -103 16 -103 20 0 7 24 28 165 145 156 129 234
196 239 204 3 5 -9 11 -27 14 -30 6 -65 10 -326 40 l-105 12 147 98 c81 53
153 100 162 103 8 4 15 12 15 19 0 25 -49 158 -61 165 -6 4 -65 11 -130 15
-192 11 -185 -3 -84 153 l85 133 -47 62 c-26 34 -53 68 -60 75 -7 8 -11 18 -7
23 7 12 1434 11 1434 -1z m-1251 -489 c42 -6 45 -8 62 -56 10 -28 18 -54 18
-60 0 -5 -40 -37 -90 -70 -85 -55 -92 -58 -105 -41 -14 19 -87 186 -99 224
l-7 24 89 -7 c48 -4 108 -10 132 -14z m161 -437 c11 -4 3 -16 -30 -44 -25 -22
-48 -40 -52 -40 -8 0 -78 89 -78 100 0 6 132 -7 160 -16z"/>
<path d="M3777 4316 c-48 -25 -138 -80 -200 -122 -208 -144 -302 -204 -384
-246 l-83 -42 -78 13 c-87 13 -123 6 -141 -28 -32 -59 -2 -81 115 -81 l75 0
-16 -30 c-22 -42 -19 -154 4 -206 37 -81 107 -99 158 -41 60 68 67 175 20 267
-14 28 -21 50 -16 50 6 0 135 49 287 109 153 59 321 123 374 140 53 18 102 39
108 47 7 8 14 33 17 57 4 34 -1 50 -23 83 -30 46 -70 74 -106 74 -13 0 -63
-20 -111 -44z"/>
<path d="M1782 3467 c-15 -17 1 -42 23 -33 18 6 17 37 -1 43 -6 2 -16 -2 -22
-10z"/>
<path d="M4140 3470 c0 -5 5 -10 10 -10 6 0 10 5 10 10 0 6 -4 10 -10 10 -5 0
-10 -4 -10 -10z"/>
</g>
</svg>
